:FULLY-SPECIFIED
:FORCE-ALL-JOINTS-BE-3DOF
:DEGREES
1
root -2.95645 16.8291 -36.2757 3.79203 -0.409345 -2.77144
lfemur -18.1857 -3.85478 -7.37129
ltibia 37.6337 0 0
lfoot -17.8071 6.78532 0
ltoes -26.1578 0 0
rfemur -19.1521 0.15077 14.7318
rtibia 40.3652 0 0
rfoot -23.1652 -2.86285 0
rtoes -21.0274 0 0
lowerback 7.02591 2.55716 -1.97249
upperback -3.14202 3.31583 1.27229
thorax -7.43554 1.75645 1.99661
lowerneck -4.68188 -4.04088 -6.84108
upperneck 4.69893 -5.30737 6.47589
head 2.76948 -2.5844 3.14763
lclavicle 1.91563e-15 -9.24349e-15 0
lhumerus -27.0689 -5.33108 89.6453
lradius 25.7364 0 0
lwrist -30.6252 0 0
lhand -28.8405 29.9909 0
lfingers 7.12502 0 0
lthumb -2.19771 59.9594 0
rclavicle 1.91563e-15 -9.24349e-15 0
rhumerus -32.8355 4.71181 -81.727
rradius 32.9783 0 0
rwrist 3.84135 0 0
rhand -24.1523 -25.0894 0
rfingers 7.12502 0 0
rthumb 2.33029 -55.0564 0
2
root -2.95746 16.8292 -36.2781 3.7592 -0.422837 -2.76834
lfemur -18.1473 -3.8161 -7.37851
ltibia 37.6192 0 0
lfoot -17.7992 6.78626 0
ltoes -26.0891 0 0
rfemur -19.1317 0.129529 14.7312
rtibia 40.3688 0 0
rfoot -23.1512 -2.81099 0
rtoes -20.9037 0 0
lowerback 7.08314 2.55727 -1.97727
upperback -3.13119 3.3145 1.27392
thorax -7.45732 1.75602 1.99935
lowerneck -4.6861 -4.037 -6.84078
upperneck 4.69112 -5.30186 6.47981
head 2.76736 -2.58149 3.14909
lclavicle 2.01692e-15 -9.27585e-15 0
lhumerus -27.0627 -5.33386 89.6575
lradius 25.7408 0 0
lwrist -30.6152 0 0
lhand -28.8421 29.9844 0
lfingers 7.12502 0 0
lthumb -2.19925 59.9528 0
rclavicle 2.01692e-15 -9.27585e-15 0
rhumerus -32.8292 4.69124 -81.716
rradius 32.9529 0 0
rwrist 3.84014 0 0
rhand -24.1518 -25.1 0
rfingers 7.12502 0 0
rthumb 2.33073 -55.0671 0
3
root -2.95851 16.8292 -36.2806 3.72448 -0.436844 -2.76497
lfemur -18.1076 -3.77351 -7.38643
ltibia 37.6053 0 0
lfoot -17.7917 6.7857 0
ltoes -26.0132 0 0
rfemur -19.1106 0.106082 14.7303
rtibia 40.374 0 0
rfoot -23.137 -2.7558 0
rtoes -20.771 0 0
lowerback 7.14359 2.55727 -1.98218
upperback -3.11985 3.31294 1.2756
thorax -7.48041 1.75549 2.00216
lowerneck -4.69004 -4.0329 -6.84042
upperneck 4.68294 -5.29606 6.4838
head 2.76504 -2.57844 3.15058
lclavicle 2.12217e-15 -9.30879e-15 0
lhumerus -27.0562 -5.33658 89.6703
lradius 25.7453 0 0
lwrist -30.6047 0 0
lhand -28.8438 29.9775 0
lfingers 7.12502 0 0
lthumb -2.20087 59.946 0
rclavicle 2.12217e-15 -9.30879e-15 0
rhumerus -32.8225 4.66941 -81.7042
rradius 32.9259 0 0
rwrist 3.83857 0 0
rhand -24.1505 -25.1114 0
rfingers 7.12502 0 0
rthumb 2.33202 -55.0787 0
4
root -2.95959 16.8291 -36.2832 3.68785 -0.451332 -2.76131
lfemur -18.0666 -3.72677 -7.39507
ltibia 37.5924 0 0
lfoot -17.7846 6.78343 0
ltoes -25.9294 0 0
rfemur -19.089 0.0803063 14.7292
rtibia 40.381 0 0
rfoot -23.1227 -2.69724 0
rtoes -20.629 0 0
lowerback 7.20723 2.55714 -1.98718
upperback -3.10801 3.31115 1.27735
thorax -7.50481 1.75485 2.00501
lowerneck -4.69365 -4.02858 -6.84001
upperneck 4.67442 -5.28998 6.48786
head 2.76252 -2.57525 3.15209
lclavicle 2.23112e-15 -9.34211e-15 0
lhumerus -27.0492 -5.33921 89.6837
lradius 25.7498 0 0
lwrist -30.5937 0 0
lhand -28.8455 29.9704 0
lfingers 7.12502 0 0
lthumb -2.20255 59.9389 0
rclavicle 2.23112e-15 -9.34211e-15 0
rhumerus -32.8155 4.64633 -81.6916
rradius 32.8972 0 0
rwrist 3.83661 0 0
rhand -24.1482 -25.1238 0
rfingers 7.12502 0 0
rthumb 2.33425 -55.0911 0
5
root -2.96069 16.829 -36.2859 3.64934 -0.466261 -2.75736
lfemur -18.0244 -3.67568 -7.40448
ltibia 37.5805 0 0
lfoot -17.7782 6.77924 0
ltoes -25.8374 0 0
rfemur -19.0669 0.0520768 14.7278
rtibia 40.3899 0 0
rfoot -23.1084 -2.63528 0
rtoes -20.4776 0 0
lowerback 7.27405 2.55686 -1.99226
upperback -3.09569 3.30911 1.27914
thorax -7.53052 1.75409 2.00789
lowerneck -4.69684 -4.02404 -6.83953
upperneck 4.66555 -5.28362 6.49194
head 2.75978 -2.57192 3.15362
lclavicle 2.3435e-15 -9.37566e-15 0
lhumerus -27.0419 -5.34172 89.6975
lradius 25.7543 0 0
lwrist -30.5822 0 0
lhand -28.8473 29.9631 0
lfingers 7.12502 0 0
lthumb -2.2043 59.9315 0
rclavicle 2.3435e-15 -9.37566e-15 0
rhumerus -32.808 4.62197 -81.6782
rradius 32.8668 0 0
rwrist 3.83422 0 0
rhand -24.1448 -25.1371 0
rfingers 7.12502 0 0
rthumb 2.33755 -55.1045 0
6
root -2.96182 16.8287 -36.2887 3.60895 -0.481596 -2.7531
lfemur -17.9812 -3.62003 -7.4147
ltibia 37.57 0 0
lfoot -17.7724 6.77293 0
ltoes -25.7369 0 0
rfemur -19.0445 0.0212692 14.7261
rtibia 40.401 0 0
rfoot -23.0941 -2.56988 0
rtoes -20.3166 0 0
lowerback 7.34401 2.55642 -1.99739
upperback -3.0829 3.3068 1.28099
thorax -7.55755 1.7532 2.01078
lowerneck -4.69956 -4.01928 -6.83899
upperneck 4.65636 -5.27698 6.49604
head 2.75683 -2.56847 3.15516
lclavicle 2.45904e-15 -9.40924e-15 0
lhumerus -27.0341 -5.34408 89.7119
lradius 25.7588 0 0
lwrist -30.5702 0 0
lhand -28.8492 29.9555 0
lfingers 7.12502 0 0
lthumb -2.20611 59.924 0
rclavicle 2.45904e-15 -9.40924e-15 0
rhumerus -32.8002 4.59634 -81.664
rradius 32.8346 0 0
rwrist 3.83136 0 0
rhand -24.1402 -25.1514 0
rfingers 7.12502 0 0
rthumb 2.34201 -55.1189 0
7
root -2.96297 16.8284 -36.2916 3.56668 -0.497299 -2.74852
lfemur -17.937 -3.5596 -7.42575
ltibia 37.561 0 0
lfoot -17.7674 6.76429 0
ltoes -25.6272 0 0
rfemur -19.0218 -0.0122409 14.7241
rtibia 40.4144 0 0
rfoot -23.0799 -2.50101 0
rtoes -20.1456 0 0
lowerback 7.4171 2.55581 -2.00255
upperback -3.06966 3.30419 1.28287
thorax -7.58589 1.75216 2.01369
lowerneck -4.70174 -4.0143 -6.83838
upperneck 4.64686 -5.27008 6.50014
head 2.75364 -2.56489 3.1567
lclavicle 2.57749e-15 -9.44269e-15 0
lhumerus -27.026 -5.34626 89.7268
lradius 25.7632 0 0
lwrist -30.5578 0 0
lhand -28.8511 29.9478 0
lfingers 7.12502 0 0
lthumb -2.20798 59.9161 0
rclavicle 2.57749e-15 -9.44269e-15 0
rhumerus -32.7919 4.56943 -81.6489
rradius 32.8007 0 0
rwrist 3.828 0 0
rhand -24.1342 -25.1667 0
rfingers 7.12502 0 0
rthumb 2.34775 -55.1342 0
8
root -2.96413 16.828 -36.2946 3.52254 -0.513333 -2.74361
lfemur -17.8921 -3.49417 -7.43767
ltibia 37.5537 0 0
lfoot -17.7633 6.75312 0
ltoes -25.5081 0 0
rfemur -18.9988 -0.0485779 14.7217
rtibia 40.4303 0 0
rfoot -23.066 -2.42864 0
rtoes -19.9646 0 0
lowerback 7.4933 2.555 -2.00773
upperback -3.05598 3.30128 1.2848
thorax -7.61556 1.75098 2.01658
lowerneck -4.70329 -4.0091 -6.8377
upperneck 4.63706 -5.26291 6.5042
head 2.75022 -2.56118 3.15824
lclavicle 2.69857e-15 -9.47583e-15 0
lhumerus -27.0174 -5.34823 89.7421
lradius 25.7675 0 0
lwrist -30.5449 0 0
lhand -28.8531 29.9398 0
lfingers 7.12502 0 0
lthumb -2.20991 59.9081 0
rclavicle 2.69857e-15 -9.47583e-15 0
rhumerus -32.7833 4.54124 -81.6329
rradius 32.7651 0 0
rwrist 3.82411 0 0
rhand -24.1269 -25.183 0
rfingers 7.12502 0 0
rthumb 2.35486 -55.1506 0
9
root -2.96531 16.8274 -36.2977 3.47653 -0.529662 -2.73835
lfemur -17.8464 -3.42353 -7.4505
ltibia 37.5483 0 0
lfoot -17.7603 6.73922 0
ltoes -25.3791 0 0
rfemur -18.9757 -0.0878662 14.7189
rtibia 40.4489 0 0
rfoot -23.0523 -2.35272 0
rtoes -19.7732 0 0
lowerback 7.57258 2.55399 -2.0129
upperback -3.04189 3.29803 1.28676
thorax -7.64655 1.74963 2.01945
lowerneck -4.70417 -4.00368 -6.83693
upperneck 4.62697 -5.25548 6.50822
head 2.74654 -2.55736 3.15977
lclavicle 2.82202e-15 -9.50848e-15 0
lhumerus -27.0084 -5.34996 89.7579
lradius 25.7717 0 0
lwrist -30.5316 0 0
lhand -28.8552 29.9316 0
lfingers 7.12502 0 0
lthumb -2.2119 59.8999 0
rclavicle 2.82202e-15 -9.50848e-15 0
rhumerus -32.7743 4.51176 -81.6161
rradius 32.7276 0 0
rwrist 3.81963 0 0
rhand -24.118 -25.2004 0
rfingers 7.12502 0 0
rthumb 2.36346 -55.168 0
10
root -2.9665 16.8267 -36.3009 3.42866 -0.546248 -2.73274
lfemur -17.8002 -3.34747 -7.46427
ltibia 37.5451 0 0
lfoot -17.7583 6.72238 0
ltoes -25.2397 0 0
rfemur -18.9525 -0.13023 14.7158
rtibia 40.4704 0 0
rfoot -23.039 -2.27323 0
rtoes -19.5713 0 0
lowerback 7.65492 2.55275 -2.01804
upperback -3.02739 3.29445 1.28874
thorax -7.67886 1.74812 2.02229
lowerneck -4.70429 -3.99805 -6.83608
upperneck 4.61661 -5.24779 6.51218
head 2.74261 -2.55342 3.16127
lclavicle 2.94756e-15 -9.54046e-15 0
lhumerus -26.999 -5.35142 89.7741
lradius 25.7757 0 0
lwrist -30.5178 0 0
lhand -28.8573 29.9232 0
lfingers 7.12502 0 0
lthumb -2.21394 59.8915 0
rclavicle 2.94756e-15 -9.54046e-15 0
rhumerus -32.7648 4.48099 -81.5984
rradius 32.6883 0 0
rwrist 3.81454 0 0
rhand -24.1074 -25.2189 0
rfingers 7.12502 0 0
rthumb 2.37366 -55.1865 0
11
root -2.96769 16.8259 -36.3041 3.37893 -0.563054 -2.72676
lfemur -17.7535 -3.26577 -7.47901
ltibia 37.5442 0 0
lfoot -17.7576 6.70239 0
ltoes -25.0895 0 0
rfemur -18.9293 -0.175794 14.7122
rtibia 40.4949 0 0
rfoot -23.0262 -2.19013 0
rtoes -19.3587 0 0
lowerback 7.7403 2.55127 -2.02313
upperback -3.01252 3.2905 1.29075
thorax -7.7125 1.74642 2.02507
lowerneck -4.7036 -3.99221 -6.83515
upperneck 4.60599 -5.23985 6.51604
head 2.73841 -2.54937 3.16275
lclavicle 3.07495e-15 -9.5716e-15 0
lhumerus -26.9892 -5.35259 89.7906
lradius 25.7796 0 0
lwrist -30.5036 0 0
lhand -28.8595 29.9147 0
lfingers 7.12502 0 0
lthumb -2.21602 59.883 0
rclavicle 3.07495e-15 -9.5716e-15 0
rhumerus -32.755 4.44892 -81.5797
rradius 32.6472 0 0
rwrist 3.8088 0 0
rhand -24.0951 -25.2386 0
rfingers 7.12502 0 0
rthumb 2.38557 -55.2061 0
12
root -2.96889 16.825 -36.3074 3.32736 -0.580044 -2.72041
lfemur -17.7064 -3.17822 -7.49477
ltibia 37.5458 0 0
lfoot -17.7583 6.67905 0
ltoes -24.9282 0 0
rfemur -18.9062 -0.224683 14.7081
rtibia 40.5227 0 0
rfoot -23.0139 -2.10338 0
rtoes -19.135 0 0
lowerback 7.82869 2.54953 -2.02814
upperback -2.99727 3.28616 1.29279
thorax -7.74747 1.74453 2.02779
lowerneck -4.70202 -3.98614 -6.83412
upperneck 4.59512 -5.23167 6.5198
head 2.73394 -2.54521 3.1642
lclavicle 3.2039e-15 -9.60172e-15 0
lhumerus -26.979 -5.35343 89.8076
lradius 25.7832 0 0
lwrist -30.4889 0 0
lhand -28.8617 29.906 0
lfingers 7.12502 0 0
lthumb -2.21816 59.8743 0
rclavicle 3.2039e-15 -9.60172e-15 0
rhumerus -32.7447 4.41554 -81.5601
rradius 32.6042 0 0
rwrist 3.80237 0 0
rhand -24.0809 -25.2594 0
rfingers 7.12502 0 0
rthumb 2.39928 -55.2269 0
13
root -2.97009 16.8239 -36.3107 3.27394 -0.59718 -2.71366
lfemur -17.6592 -3.0846 -7.51158
ltibia 37.5502 0 0
lfoot -17.7604 6.65215 0
ltoes -24.7552 0 0
rfemur -18.8832 -0.27702 14.7036
rtibia 40.5539 0 0
rfoot -23.0023 -2.01296 0
rtoes -18.9002 0 0
lowerback 7.92008 2.54753 -2.03306
upperback -2.98167 3.28143 1.29483
thorax -7.78377 1.74245 2.03044
lowerneck -4.69948 -3.97987 -6.83299
upperneck 4.58401 -5.22324 6.52343
head 2.72918 -2.54095 3.16561
lclavicle 3.33415e-15 -9.63065e-15 0
lhumerus -26.9683 -5.35391 89.825
lradius 25.7867 0 0
lwrist -30.4739 0 0
lhand -28.8639 29.8972 0
lfingers 7.12502 0 0
lthumb -2.22034 59.8655 0
rclavicle 3.33415e-15 -9.63065e-15 0
rhumerus -32.7341 4.38086 -81.5396
rradius 32.5593 0 0
rwrist 3.79522 0 0
rhand -24.0647 -25.2814 0
rfingers 7.12502 0 0
rthumb 2.41491 -55.2488 0
